<?xml version="1.0" encoding="UTF-8" standalone="no"?>
<!-- Created with Inkscape (http://www.inkscape.org/) -->

<svg
   width="197.00201mm"
   height="89.113983mm"
   viewBox="0 0 197.00201 89.113983"
   version="1.1"
   id="svg5"
   inkscape:version="1.2.1 (9c6d41e410, 2022-07-14)"
   sodipodi:docname="dessin.svg"
   xmlns:inkscape="http://www.inkscape.org/namespaces/inkscape"
   xmlns:sodipodi="http://sodipodi.sourceforge.net/DTD/sodipodi-0.dtd"
   xmlns="http://www.w3.org/2000/svg"
   xmlns:svg="http://www.w3.org/2000/svg">
  <sodipodi:namedview
     id="namedview7"
     pagecolor="#ffffff"
     bordercolor="#000000"
     borderopacity="0.25"
     inkscape:showpageshadow="2"
     inkscape:pageopacity="0.0"
     inkscape:pagecheckerboard="0"
     inkscape:deskcolor="#d1d1d1"
     inkscape:document-units="mm"
     showgrid="false"
     inkscape:zoom="0.5852904"
     inkscape:cx="235.78039"
     inkscape:cy="767.99482"
     inkscape:window-width="1041"
     inkscape:window-height="828"
     inkscape:window-x="-3"
     inkscape:window-y="0"
     inkscape:window-maximized="0"
     inkscape:current-layer="layer2" />
  <defs
     id="defs2">
    <rect
       x="95.679001"
       y="527.94305"
       width="613.37073"
       height="304.12253"
       id="rect287" />
    <rect
       x="218.69485"
       y="372.46466"
       width="111.05598"
       height="49.548054"
       id="rect113" />
  </defs>
  <g
     inkscape:label="Calque 1"
     inkscape:groupmode="layer"
     id="layer1"
     style="display:none"
     transform="translate(1.3257183,-139.87823)">
    <text
       xml:space="preserve"
       transform="scale(0.26458333)"
       id="text111"
       style="white-space:pre;shape-inside:url(#rect113);display:inline;fill:#000000" />
    <text
       xml:space="preserve"
       transform="matrix(0.474033,0,0,0.72982447,-68.9815,-325.17012)"
       id="text285"
       style="font-style:normal;font-variant:normal;font-weight:bold;font-stretch:normal;font-size:85.3333px;font-family:'Footlight MT Light';-inkscape-font-specification:'Footlight MT Light,  Bold';white-space:pre;shape-inside:url(#rect287);shape-padding:34.1711;display:inline;fill:#000000"><tspan
         x="129.84961"
         y="731.18905"
         id="tspan690"><tspan
           style="font-size:192px"
           id="tspan682">R</tspan><tspan
           style="font-size:96px"
           id="tspan684">ed</tspan><tspan
           style="font-size:192px"
           id="tspan686">O</tspan><tspan
           style="font-size:96px"
           id="tspan688">cio</tspan></tspan></text>
    <path
       style="fill:#000000;stroke-width:0.264583"
       d="M 36.164382,82.273972 C 35.712328,127.0274 35.712328,127.93151 35.712328,127.93151"
       id="path361" />
    <circle
       id="path496"
       style="fill:#00ffff;stroke:#000000;stroke-width:0.264583"
       cx="84.534248"
       cy="223.31506"
       r="0.060213257" />
  </g>
  <g
     inkscape:groupmode="layer"
     id="layer2"
     inkscape:label="mano"
     style="fill:#000080"
     transform="translate(1.3257183,-139.87823)">
    <path
       style="fill:#000080;stroke-width:0.264583"
       id="path476"
       d="m 1.8665206,143.10488 c 1.3690994,-0.0355 2.7388097,-0.0327 4.1082531,-0.0299 1.5246892,0.005 3.0493858,-0.002 4.5740733,10e-4 1.516796,-0.007 3.033598,0.003 4.550403,0.003 1.348042,0.0116 2.69603,-0.001 4.04407,-7.9e-4 1.512473,0.006 3.024863,-0.008 4.537336,-0.003 1.18566,0.006 2.371315,0.013 3.556986,0.0166 1.130752,0.018 2.262476,-0.0584 3.388463,0.0573 1.582695,0.24766 3.130373,0.72305 4.599313,1.3602 1.276924,0.65578 4.455131,1.66352 -1.388726,-0.88479 -0.205386,-0.0896 0.314047,0.32032 0.457805,0.49219 0.143296,0.17131 0.268105,0.35727 0.402157,0.53591 0.61202,0.86488 0.890775,1.78994 0.843565,2.83536 -0.07282,0.97083 -0.140536,1.94153 -0.178562,2.91442 -0.02714,1.0362 -0.02676,2.07307 -0.03109,3.1096 -0.0034,0.94493 -0.0037,1.88987 -0.0039,2.83481 0.0033,1.08403 0.01355,2.168 0.01177,3.25205 0.0034,1.18855 0.0011,2.37711 5.29e-4,3.56566 -0.0011,1.05402 -0.01262,2.10803 -0.0053,3.16204 -0.05368,0.99416 -0.316484,1.97253 -0.66911,2.90066 -0.417833,0.88031 -0.935948,1.69688 -1.479838,2.50298 -0.615807,0.85811 -1.212432,1.72991 -1.798058,2.60898 -0.592503,0.74853 -1.264317,1.40051 -1.811589,2.18375 -0.626788,0.84731 -1.33835,1.66216 -2.159222,2.32726 -0.794952,0.57646 -1.733982,0.72995 -2.687351,0.80786 -0.988749,0.0486 -1.979357,0.0339 -2.96897,0.0347 -1.099951,-0.004 -2.199882,-0.0119 -3.299833,-0.016 -1.125856,0.001 -2.251667,0.006 -3.377539,0.003 0,0 3.142895,2.28346 3.142895,2.28346 v 0 c 1.12997,-0.003 2.259865,0.002 3.389816,0.006 1.095129,-2.4e-4 2.190272,-7.9e-4 3.285381,0.007 1.00412,0.009 2.01099,0.0324 3.012615,-0.0541 1.010698,-0.12273 1.984256,-0.36299 2.800509,-1.00962 0.831937,-0.70736 1.573326,-1.529 2.218624,-2.40933 0.560247,-0.77333 1.25295,-1.42096 1.813271,-2.19613 0.587087,-0.87745 1.18318,-1.74888 1.802172,-2.60406 0.561407,-0.82964 1.095143,-1.67532 1.53197,-2.57868 0.362635,-0.97434 0.63868,-1.99174 0.723894,-3.03036 0.0074,-1.05579 -0.0042,-2.11159 -0.0052,-3.1674 -5.3e-4,-1.18838 -0.0028,-2.37676 5.29e-4,-3.56514 -0.0019,-1.0803 0.0083,-2.16051 0.01072,-3.24078 -0.0011,-0.94632 -0.0033,-1.89264 -0.0058,-2.83895 -0.0013,-1.0318 -0.0013,-2.06368 0.03008,-3.09512 0.03119,-0.9687 0.08383,-1.93662 0.186872,-2.90068 0.07698,-1.12502 -0.150646,-2.13607 -0.778822,-3.09588 -0.115684,-0.17078 -0.630259,-0.967 -0.813575,-1.09334 -1.858767,-1.281 -3.278336,-2.24958 -5.235842,-2.97587 -1.512682,-0.57438 -3.064672,-1.07552 -4.676908,-1.27165 -1.143166,-0.0719 -2.288799,-0.0445 -3.43384,-0.0509 -1.170434,0.004 -2.340851,0.0105 -3.511273,0.0166 -1.515098,0.005 -3.030114,-0.009 -4.545212,-0.003 -1.348836,1.8e-4 -2.697622,-0.0125 -4.046461,-7.9e-4 -1.514189,-5.3e-4 -3.0283743,0.0102 -4.5425543,0.003 -1.5237679,0.003 -3.0475451,-0.004 -4.5713144,0.001 -1.3968386,0.003 -2.79390438,0.005 -4.1904207,-0.0299 0,0 3.1923058,2.31935 3.1923058,2.31935 z" />
    <path
       style="fill:#000080;stroke-width:0.264583"
       id="path478"
       d="m 11.911989,177.99713 c 0.876509,1.04192 1.777071,2.06306 2.668441,3.0922 0.996935,1.07497 2.06159,2.08493 3.105297,3.11403 1.118569,1.0459 2.079357,2.24175 3.028659,3.43889 0.786265,0.91676 1.636047,1.77612 2.350202,2.75276 0.78643,1.03319 1.403785,2.17039 1.949666,3.3445 0.57758,1.42539 1.246651,2.81612 1.69792,4.28806 0.44903,1.39845 0.668317,2.85148 0.974265,4.28402 0.234582,1.07934 0.335857,2.17852 0.386794,3.27973 -0.03012,1.33224 0.102338,2.62093 0.423857,3.91341 0.399497,1.28938 0.796412,2.58981 1.276932,3.85199 0.543711,1.01575 0.993529,2.07034 1.412047,3.14233 0.337849,0.87621 0.419841,1.81493 0.617686,2.72631 0.251277,0.87088 0.78704,1.6262 1.249212,2.39694 0.629353,0.90418 1.143201,1.87926 2.002313,2.58592 1.328063,0.75398 2.631697,1.55271 3.984183,2.26194 0.271982,0.14262 0.580491,0.20165 0.875644,0.28651 1.702414,0.48945 3.482449,0.54345 5.239065,0.65876 1.322956,0.0852 2.648098,0.12424 3.972946,0.1647 0,0 -3.042176,-2.22149 -3.042176,-2.22149 v 0 c -1.300816,-0.0228 -2.601775,-0.0502 -3.900525,-0.13308 -1.442071,-0.10937 -2.88545,-0.20285 -4.298616,-0.53348 -0.330034,-0.0772 -0.655765,-0.17384 -0.976704,-0.28285 -0.296572,-0.10072 -1.130644,-0.52483 -0.873752,-0.34564 0.840909,0.58654 1.760177,1.05187 2.640266,1.57781 -0.35065,-0.22274 -0.565002,-0.32377 -0.843484,-0.64354 -0.471559,-0.54146 -0.715502,-1.26505 -1.208958,-1.79532 -0.456972,-0.74414 -0.933251,-1.48817 -1.300212,-2.27923 -0.207923,-0.92841 -0.297358,-1.87899 -0.602332,-2.7839 -0.409924,-1.08111 -0.844603,-2.15404 -1.428406,-3.15568 -0.522235,-1.23989 -0.882711,-2.55677 -1.332839,-3.82413 -0.339775,-1.25732 -0.454564,-2.51104 -0.401373,-3.81258 -0.05024,-1.12538 -0.152463,-2.24857 -0.39012,-3.35193 -0.302167,-1.44494 -0.564144,-2.90179 -0.985515,-4.31833 -0.392123,-1.50498 -1.120084,-2.87852 -1.659352,-4.33396 -0.527651,-1.18942 -1.101516,-2.36756 -1.906024,-3.39861 -0.656091,-1.024 -1.524099,-1.88724 -2.345672,-2.77892 -0.949638,-1.21558 -1.929131,-2.41837 -3.036774,-3.49501 -1.035536,-1.01975 -2.075815,-2.03522 -3.086644,-3.07959 -0.902614,-0.9806 -1.756906,-2.00955 -2.612167,-3.03193 0,0 -3.62375,-1.56161 -3.62375,-1.56161 z" />
    <path
       style="fill:#000080;stroke-width:0.264583"
       id="path480"
       d="m 6.3935231,142.84562 c 0.1208868,2.56521 0.089037,5.13446 0.081728,7.70161 -0.076493,1.90794 -0.031055,3.80302 0.1472793,5.70241 0.1577805,1.54401 0.2032772,3.095 0.2338826,4.64564 0.044639,1.71783 0.037951,3.43632 0.022495,5.15448 -0.052146,1.75632 0.1398397,3.50363 0.2682674,5.25253 0.1221759,1.55665 0.1573496,3.11791 0.1700231,4.6787 -0.055033,1.67865 0.099414,3.34623 0.2286656,5.01738 0.1478426,1.79833 0.1912054,3.60264 0.222495,5.40603 0.024783,1.53995 0.015346,3.08016 0.00712,4.62021 -0.00658,1.11261 -0.022505,2.22519 -0.016317,3.33782 0.00516,1.19946 0.00319,2.39891 0.011224,3.59836 0.011446,1.48405 0.013465,2.96793 0.00209,4.452 -0.00452,1.26331 -0.00366,2.52662 -0.00876,3.78993 0.00153,1.1779 -2.101e-4,2.35579 -5.821e-4,3.53369 0.013531,1.26577 0.00638,2.53156 -9.525e-4,3.79733 -0.013396,1.17948 0.00259,2.35888 0.014015,3.53828 -0.00222,1.33952 -0.00401,2.67905 -0.010726,4.01855 -0.0065,1.02054 -0.010605,2.04108 -0.012711,3.06163 0,0 3.4807615,1.77354 3.4807615,1.77354 v 0 c -0.0021,-1.02487 -0.0062,-2.04973 -0.01271,-3.07458 -0.0067,-1.34315 -0.0085,-2.68633 -0.01073,-4.02949 0.01149,-1.17464 0.02743,-2.34928 0.01402,-3.52399 -0.0073,-1.26611 -0.01454,-2.53222 -9.53e-4,-3.79831 -3.7e-4,-1.1781 -0.0021,-2.35619 -5.82e-4,-3.53429 -0.0051,-1.26629 -0.0042,-2.53257 -0.0088,-3.79886 -0.01128,-1.48336 -0.0095,-2.96653 0.0021,-4.44986 0.0081,-1.19543 0.0061,-2.39086 0.01209,-3.58629 0.0073,-1.11732 -0.0067,-2.23462 -0.01135,-3.35194 -0.0069,-1.54616 -0.01388,-3.09231 -0.02805,-4.63844 -0.03081,-1.8152 -0.110563,-3.62873 -0.237967,-5.43985 -0.130845,-1.65652 -0.237481,-3.31071 -0.197635,-4.97352 -0.02554,-1.57138 -0.05056,-3.14424 -0.176623,-4.71151 -0.153343,-1.73611 -0.339716,-3.47355 -0.271326,-5.21921 -0.01408,-1.71941 -0.01583,-3.43881 -0.01322,-5.15825 -0.02949,-1.56076 -0.0827,-3.12233 -0.230929,-4.67691 -0.1856715,-1.90423 -0.3145728,-3.80344 -0.2621482,-5.71982 -0.00721,-2.53935 -0.040858,-5.08099 0.081728,-7.61832 0,0 -3.4869262,-1.77668 -3.4869262,-1.77668 z" />
    <path
       style="fill:#000080;stroke-width:0.264583"
       id="path482"
       d="m 2.368275,227.18389 c 2.1510935,0.10827 4.3004939,0.24036 6.452481,0.33144 1.667934,0.0643 3.336972,0.088 5.005943,0.10435 1.761859,-0.0202 3.523748,-0.0219 5.285715,-0.0128 0.269996,5.3e-4 0.539992,0.001 0.809988,0.002 0,0 -3.105568,-2.25609 -3.105568,-2.25609 v 0 c -0.268168,8e-4 -0.536336,0.002 -0.804504,0.002 -1.772211,0.0114 -3.544397,0.0133 -5.316496,-0.0118 -1.6424894,0.003 -3.2851925,-0.007 -4.9268937,-0.0633 -2.1979522,-0.0794 -4.3939745,-0.20512 -6.58422327,-0.40881 0,0 3.18355797,2.31299 3.18355797,2.31299 z" />
    <path
       style="fill:#000080;stroke-width:0.264583"
       id="path494"
       d="m 118.88181,139.87824 c -0.83514,0.0778 -1.69258,-0.0645 -2.52124,0.0972 -0.66859,0.13041 -1.68967,0.50826 -2.29709,0.71557 -2.22339,0.76216 -4.51901,1.26289 -6.68485,2.18507 -1.3084,0.617 -2.58828,1.26864 -3.73691,2.15338 -0.80868,0.6428 -1.77067,1.01731 -2.62649,1.5899 -0.92099,0.44547 -1.718031,1.0187 -2.461991,1.71737 -1.16455,1.00342 -2.06503,2.22574 -2.93262,3.48114 -0.89368,1.26366 -1.49626,2.69263 -2.16729,4.07892 -0.44715,1.34032 -1.00658,2.65125 -1.33281,4.02869 -0.45303,1.14869 -0.931554,2.28493 -1.371616,3.43988 -0.443807,1.32566 -0.865884,2.6561 -1.282002,3.99032 -0.353629,1.19146 -0.630071,2.39199 -1.081371,3.55207 -0.585096,1.22918 -1.003305,2.48784 -1.321085,3.80822 -0.312582,1.20886 -0.502187,2.44106 -0.601869,3.68418 -0.07994,1.27532 -0.03328,2.55388 -0.02878,3.83057 0.01693,1.54213 -0.0055,3.08423 -0.0057,4.62634 -0.0687,1.49913 0.234889,2.94616 0.644462,4.37579 0.396801,1.04936 0.755676,2.11086 1.121333,3.17131 0.316839,0.89406 0.40767,1.83519 0.458391,2.7753 0.0481,1.2617 0.01164,2.52339 0.101028,3.78303 0.211934,1.65086 0.770141,3.24477 1.460034,4.753 0.701665,1.35283 1.251275,2.76416 1.739715,4.20447 0.55125,1.31525 0.98185,2.67771 1.55029,3.98508 0.44796,1.01992 0.87137,2.05108 1.38908,3.0384 0.75869,1.24327 1.38283,2.5588 2.01759,3.86757 0.56063,1.25964 1.43237,2.26152 2.4169,3.19685 0.675431,0.57469 1.167061,1.31268 1.756591,1.96728 1.58371,1.49381 3.55886,2.70248 5.73252,2.96155 1.18349,0.0807 2.37249,0.0514 3.55813,0.0455 1.26951,-5.3e-4 2.53901,-0.005 3.80851,-0.004 1.43852,-0.005 2.87702,-0.0153 4.31556,-0.0131 1.19085,5.3e-4 2.3736,0.0822 3.5483,-0.13571 0.8297,-0.28926 1.52154,-0.83702 2.24339,-1.32193 1.50022,-0.8763 2.95707,-1.81844 4.42857,-2.74131 1.20607,-0.68882 2.29451,-1.5534 3.46264,-2.30001 0.78679,-0.41422 1.57879,-0.84182 2.23425,-1.44797 1.03806,-1.02531 1.65165,-2.38718 2.34062,-3.65345 0.85852,-1.65632 1.45486,-3.43305 2.30996,-5.08898 0.70298,-1.26896 1.25077,-2.60473 1.76399,-3.95883 0.35645,-1.25898 0.68109,-2.52989 1.01575,-3.79674 0.26021,-1.33971 0.52364,-2.67974 0.71282,-4.03178 0.14078,-1.21945 0.19027,-2.44643 0.21647,-3.67286 0.0203,-1.57797 -0.0247,-3.14895 -0.15479,-4.7213 -0.12997,-2.0118 -0.37777,-4.01246 -0.56954,-6.01873 -0.13283,-1.6427 -0.14019,-3.28773 -0.31397,-4.92697 -0.0463,-1.42627 -0.42934,-2.78361 -0.76286,-4.15903 -0.19826,-1.13767 -0.4925,-2.25553 -0.70042,-3.39106 -0.15875,-1.46485 -0.33949,-2.9281 -0.48861,-4.39436 -0.20358,-1.24897 -0.42673,-2.49235 -0.53876,-3.75363 -0.1701,-1.26001 -0.42158,-2.51347 -0.76391,-3.73809 -0.30466,-1.09047 -0.95329,-2.0282 -1.40459,-3.05691 -0.50403,-1.39081 -1.10809,-2.73651 -1.76827,-4.05986 -0.6569,-1.22412 -1.26197,-2.47457 -1.85959,-3.72838 -0.61106,-1.19699 -1.40704,-2.28425 -2.24854,-3.32726 -1.73067,-2.22819 -4.14798,-3.32056 -6.57721,-4.72801 -0.98513,-0.48992 -2.06198,-0.61736 -3.14453,-0.66855 -0.91279,-0.0237 -1.82603,-0.008 -2.73895,-0.001 -0.90232,0.007 -1.80466,0.009 -2.707,0.01 -0.75318,7.9e-4 -1.50635,5.3e-4 -2.25953,5.3e-4 0,0 3.16292,2.29798 3.16292,2.29798 v 0 c 0.75331,-4e-5 1.50661,-5e-5 2.25992,-10e-4 0.90284,-0.002 1.80569,-0.004 2.70851,-0.0116 0.90656,-0.007 1.81399,-0.0231 2.7199,0.0204 1.04721,0.0784 2.0754,0.25813 3.00365,0.78228 -5.72007,-3.35075 -0.93416,-0.69818 0.0204,0.78678 0.84783,1.01862 1.63123,2.08932 2.2896,3.24129 0.58667,1.26412 1.19422,2.51714 1.85933,3.74218 0.6812,1.30044 1.29192,2.63066 1.75885,4.02395 0.41777,1.03609 1.03985,1.96253 1.4082,3.01814 0.41257,1.18285 0.60679,2.43226 0.8078,3.66505 0.10425,1.26984 0.3141,2.52035 0.55521,3.77121 0.16559,1.46605 0.36903,2.92738 0.45045,4.40101 0.17592,1.15612 0.52789,2.2742 0.71568,3.4289 0.32704,1.36422 0.74606,2.70487 0.79107,4.11983 0.19903,1.64154 0.22462,3.29155 0.35631,4.9395 0.18348,2.00513 0.48094,3.99901 0.56892,6.01283 0.12066,1.54968 0.15756,3.09691 0.0967,4.6511 -0.009,1.21647 -0.0302,2.43523 -0.16976,3.64508 -0.17239,1.34055 -0.44906,2.66327 -0.68923,3.99238 -0.31575,1.25761 -0.68921,2.50054 -1.00727,3.75666 -0.48487,1.35077 -1.01721,2.67752 -1.70515,3.94006 -0.83399,1.66154 -1.4091,3.44454 -2.29258,5.0857 -0.6747,1.22519 -1.30326,2.53335 -2.3527,3.48796 -0.67226,0.55254 -1.42418,0.98984 -2.17888,1.41994 -1.1394,0.77168 -2.22992,1.61382 -3.40763,2.32909 -1.46481,0.9533 -2.95213,1.85895 -4.48004,2.70833 -0.70623,0.42971 -1.37131,0.95941 -2.18232,1.17678 -1.1424,0.18491 -2.29992,0.0949 -3.45306,0.12163 -1.44915,0.002 -2.89826,-0.008 -4.3474,-0.009 -1.26308,0.006 -2.52615,0.01 -3.78922,0.0177 -1.18875,-0.003 -2.38402,0.0216 -3.56609,-0.12381 -0.3461,-0.0629 -0.5087,-0.0794 -0.84272,-0.19175 -0.13487,-0.0454 -0.51729,-0.23368 -0.39625,-0.15885 5.39255,3.33387 3.32194,2.06319 2.24378,1.24743 -0.61121,-0.6536 -1.0961,-1.4024 -1.76951,-1.99249 -1.16712,-1.20779 0.42619,0.40405 -0.84331,-0.75787 -0.71312,-0.6527 -1.19939,-1.51549 -1.67944,-2.34095 -0.618331,-1.30352 -1.210671,-2.62269 -1.955051,-3.86114 -0.55026,-0.9723 -0.9606,-2.01108 -1.42706,-3.02438 -0.60751,-1.28748 -0.98909,-2.66199 -1.57915,-3.95837 -0.50263,-1.44324 -0.99444,-2.8911 -1.71937,-4.244 -0.7281,-1.4543 -1.28381,-3.01276 -1.52955,-4.62462 -0.0797,-1.24945 -0.0184,-2.50031 -0.0574,-3.75157 -0.0356,-0.96998 -0.0908,-1.94365 -0.40339,-2.87214 -0.364492,-1.069 -0.725497,-2.13854 -1.17662,-3.17553 -0.401505,-1.39835 -0.772332,-2.79954 -0.679826,-4.27349 -0.0029,-1.54598 -0.03031,-3.09189 -0.01736,-4.63793 0.0031,-1.26011 0.02072,-2.52064 0.06748,-3.77992 0.07416,-1.22816 0.225782,-2.45044 0.53363,-3.6444 0.331428,-1.2948 0.723422,-2.54622 1.306086,-3.75482 0.48586,-1.16464 0.76347,-2.36868 1.08549,-3.58574 0.41215,-1.32624 0.83566,-2.64489 1.29841,-3.95477 0.44117,-1.17393 0.89451,-2.33752 1.39293,-3.48803 0.30327,-1.35338 0.79345,-2.66237 1.26712,-3.9626 0.68341,-1.35921 1.21967,-2.7973 2.1036,-4.04629 0.87814,-1.21561 1.782331,-2.40803 2.944291,-3.37342 0.7558,-0.64876 1.55755,-1.19696 2.44149,-1.65895 0.87161,-0.55062 1.83898,-0.94375 2.62338,-1.62749 1.12139,-0.85545 2.37661,-1.485 3.64214,-2.09955 2.13513,-0.90997 4.37769,-1.49867 6.58447,-2.20782 1.77114,-0.50854 3.10565,-0.74688 4.93857,-0.58528 0,0 -3.20105,-2.3257 -3.20105,-2.3257 z" />
    <path
       style="fill:#000080;stroke-width:0.264583"
       id="path500"
       d="m 47.92641,188.31353 c 0.768874,-0.009 1.537769,-0.0127 2.306672,-0.0185 1.506048,-0.0157 3.012202,-0.019 4.518324,-0.0156 1.328975,0.003 2.657941,0.008 3.986908,0.014 1.168535,-0.0102 1.839614,0.27953 2.569422,-0.8185 0.377986,-0.84362 0.09195,-1.61899 -0.202216,-2.43174 -0.527299,-1.08494 -1.039357,-2.17672 -1.534716,-3.27674 -0.594399,-1.06433 -1.260303,-2.09351 -1.965433,-3.0881 -1.436431,-1.72315 -3.529825,-3.03461 -5.747419,-3.4435 -0.909125,0.0443 -1.824077,0.10671 -2.645466,0.51918 -1.018754,0.4622 -1.770245,1.30008 -2.388319,2.20728 -0.64556,1.03038 -1.321494,2.01656 -1.713529,3.17551 -0.310941,1.00568 -0.782418,1.92757 -1.326391,2.82323 -0.640395,1.06619 -1.259568,2.13495 -1.692709,3.30356 -0.44169,0.99026 -0.67687,2.0259 -0.794697,3.09773 -0.101656,1.25206 -0.07908,2.51055 -0.08224,3.76573 -0.06758,1.25016 0.100613,2.48368 0.255617,3.71974 0.06679,1.10539 0.483706,2.13602 0.88556,3.15398 0.518671,0.97758 0.776856,2.0509 1.154875,3.0821 0.339113,1.0307 1.001244,1.89683 1.822029,2.59136 2.335202,1.67899 3.497522,2.38343 5.942922,2.43007 1.019638,0.0102 2.039345,8e-4 3.058991,-0.004 0.911,-0.042 1.835547,0.0783 2.736366,-0.0785 0.741823,-0.071 1.166794,-0.69923 1.806906,-0.99918 0.917432,-0.42906 1.178946,-1.18904 1.441206,-2.11417 0.329187,-1.18742 0.494969,-2.4078 0.588807,-3.63361 0.03552,-0.67486 0.02114,-0.34061 0.04353,-1.00272 0,0 -3.471905,-1.78099 -3.471905,-1.78099 v 0 c -0.01363,0.65598 -0.0042,0.32499 -0.02856,0.99298 -0.06944,1.20125 -0.197515,2.4029 -0.534369,3.56283 -0.292266,0.90544 -0.425108,1.39918 -1.327195,1.81837 -0.579532,0.32503 -1.014881,0.85847 -1.720268,0.89601 -0.894204,0.0854 -1.796563,0.0153 -2.693678,0.0467 -1.015362,0.008 -2.03124,0.024 -3.046314,-0.009 -0.450355,-0.0275 -0.901184,-0.0494 -1.342763,-0.15103 -1.314344,-0.3025 -3.310337,-1.84578 2.179793,1.47017 -0.87009,-0.56817 -1.581472,-1.41701 -1.931302,-2.39992 -0.413229,-1.02012 -0.59137,-2.12066 -1.150845,-3.08429 -0.394181,-0.99101 -0.84615,-1.98631 -0.922665,-3.06437 -0.162515,-1.22522 -0.38748,-2.4445 -0.302313,-3.68713 -0.0013,-1.23954 -0.0027,-2.48086 0.08698,-3.71786 0.104535,-1.04199 0.320276,-2.05481 0.743517,-3.0193 0.401227,-1.15546 1.018836,-2.19031 1.651238,-3.23289 0.578297,-0.91094 1.056608,-1.86659 1.387588,-2.89696 0.350306,-1.13298 0.990267,-2.10159 1.639168,-3.08597 0.6077,-0.8535 1.314842,-1.61084 2.309059,-2.01031 0.781624,-0.31398 1.65718,-0.39961 2.492846,-0.31561 1.405649,0.38371 2.928056,1.49963 -2.094458,-1.44711 -0.138353,-0.0812 0.280622,0.15705 0.410297,0.25146 0.360691,0.26263 0.448988,0.39784 0.747853,0.73167 0.752893,0.94331 1.345547,2.00877 2.012966,3.01265 0.477874,1.09294 0.974069,2.17843 1.521788,3.23829 0.240885,0.68853 0.608716,1.36661 0.348665,2.10215 -0.498239,0.78771 -1.523293,0.46656 -2.324042,0.51522 -1.316074,0.006 -2.632146,0.0109 -3.948226,0.014 -1.520457,0.003 -3.040943,-1.8e-4 -4.561326,-0.0156 -0.785874,-0.006 -1.571739,-0.01 -2.357583,-0.0185 0,0 3.201053,2.3257 3.201053,2.3257 z" />
    <path
       style="fill:#000080;stroke-width:0.264583"
       id="path502"
       d="m 76.894803,163.86608 c 0.02997,0.98204 0.02627,1.96485 0.03624,2.94727 0.02537,1.87972 0.03966,3.75952 0.04036,5.63944 -0.04778,1.66382 0.149796,3.32069 0.285072,4.9763 0.122928,1.34692 0.511858,2.64371 0.75732,3.96904 0.295119,1.64721 0.715124,3.266 1.17389,4.87417 0.421087,1.40136 0.689348,2.83844 0.828847,4.29326 0.08797,1.17672 0.09163,2.35793 0.09217,3.53733 0.0077,1.4358 -0.0029,2.87159 -0.0029,4.30739 0.06798,1.20732 0.244925,2.40432 0.347488,3.6089 0.07227,1.03528 0.07883,2.07351 0.08304,3.11083 -0.02434,0.84142 -0.08604,1.65399 0.56652,2.26637 2.514968,1.60601 2.563972,2.25835 4.40177,1.9873 0,0 -3.200379,-2.2887 -3.200379,-2.2887 v 0 c -1.412057,-0.008 -2.755116,-1.29703 2.463327,1.73401 -0.910273,-0.38881 -0.754573,-1.06021 -0.752174,-1.92876 -0.0075,-1.04783 -0.02096,-2.09609 -0.08462,-3.14231 -0.0808,-1.20467 -0.284276,-2.39422 -0.389337,-3.59656 0.0036,-1.43405 -2.65e-4,-2.86813 0.01381,-4.30214 0.0019,-1.1878 0.03256,-2.37828 -0.05979,-3.56366 -0.148542,-1.48651 -0.43887,-2.95087 -0.85771,-4.38586 -0.463534,-1.58592 -0.867765,-3.18729 -1.149078,-4.81629 -0.218612,-1.32293 -0.628491,-2.60263 -0.774843,-3.93812 -0.135816,-1.66029 -0.410151,-3.31372 -0.370115,-4.98425 7.94e-4,-1.86622 0.01482,-3.73231 0.04037,-5.59831 0.0099,-0.97011 0.006,-1.94062 0.03624,-2.91034 0,0 -3.525462,-1.79631 -3.525462,-1.79631 z" />
    <path
       style="fill:#000080;stroke-width:0.264583"
       id="path504"
       d="m 76.446268,179.93163 c -0.930563,-0.39415 -1.776005,-0.92683 -2.736435,-1.26015 -0.915312,-0.41808 -1.752676,-0.9615 -2.703528,-1.31137 -1.233583,-0.37121 -1.668589,-0.45968 -2.491089,0.59563 -0.596757,1.09086 -1.110874,2.23062 -1.649058,3.35342 -0.468135,0.95815 -0.665578,1.99268 -0.761944,3.04489 -0.185262,0.76826 -0.287936,1.55338 -0.453885,2.32482 -0.317484,0.81906 -0.57744,1.65549 -0.908013,2.46897 -0.354552,0.87413 -0.401847,1.82189 -0.452364,2.75225 -0.04241,1.04522 -0.02963,2.09171 -0.03063,3.13756 0.05957,1.12096 -0.05826,2.22635 -0.177665,3.33835 -0.135654,1.17682 -0.211685,2.35878 -0.252545,3.54231 -0.0065,1.14228 -0.05405,2.2888 0.03128,3.42861 0.0995,0.58197 0.2945,1.23788 0.847294,1.55615 3.651882,2.1026 2.355455,1.83205 4.155995,2.14234 0.893061,0.10069 1.794177,0.0771 2.691196,0.0691 1.035082,-0.006 1.594779,-0.0941 2.1268,-1.03023 0.399056,-1.06196 0.697905,-2.17119 1.187784,-3.19596 0.686025,-0.9528 1.680159,-1.64143 2.542728,-2.42938 0.890068,-0.9195 1.45243,-2.04966 1.811819,-3.26416 0.183549,-0.86482 0.438724,-1.71363 0.716473,-2.55248 0.247544,-0.96411 0.489378,-1.92482 0.79801,-2.87192 0,0 -3.41053,-1.875 -3.41053,-1.875 v 0 c -0.306155,0.94426 -0.584155,1.89355 -0.816684,2.85862 -0.282466,0.84572 -0.548592,1.70026 -0.702789,2.58041 -0.311473,1.16247 -0.827545,2.22923 -1.700398,3.08153 -0.889809,0.83004 -1.945634,1.53418 -2.617565,2.55884 -0.473876,1.01891 -0.795999,2.10504 -1.206272,3.14916 -0.428197,0.7365 -1.11184,0.68747 -1.8933,0.695 -0.881502,0.004 -1.774016,0.0281 -2.642137,-0.14929 -1.51252,-0.46449 -0.355442,-0.14219 2.612215,1.65896 0.110165,0.0669 -0.239882,-0.0984 -0.347686,-0.16905 -0.391388,-0.25633 -0.571556,-0.63839 -0.675513,-1.08185 -0.129101,-1.12196 -0.0382,-2.25305 -0.0411,-3.38039 0.02492,-1.17755 0.07435,-2.35539 0.210752,-3.52609 0.137477,-1.12053 0.301389,-2.23279 0.221945,-3.36612 -0.004,-1.03907 -0.0051,-2.07835 0.02671,-3.11707 0.04047,-0.8879 0.08144,-1.79089 0.407887,-2.62899 0.330761,-0.83519 0.581835,-1.6955 0.93413,-2.5232 0.194371,-0.78396 0.273751,-1.59482 0.472234,-2.37973 0.07341,-1.01101 0.231627,-2.0101 0.666779,-2.93733 0.512043,-1.09767 1.030787,-2.20076 1.622401,-3.25505 0.744924,-0.82454 1.238803,-0.51727 2.210604,-0.19563 0.924039,0.39465 1.761713,0.95661 2.706341,1.30377 0.949164,0.38208 1.820656,0.91414 2.755591,1.32812 0,0 -3.085833,-2.46838 -3.085833,-2.46838 z" />
    <path
       style="fill:#000080;stroke-width:0.264583"
       id="path506"
       d="m 162.23737,185.9678 c -0.0478,-1.25502 -0.0355,-2.5111 -0.0385,-3.76672 0.0593,-1.53377 -0.69128,-2.71433 -1.52858,-3.92989 -1.57995,-2.37636 -2.0828,-2.60759 -5.49743,-3.98838 -0.14009,-0.0567 -1.92262,0.17864 -2.00582,0.1887 -2.01905,0.26992 -3.1213,0.37384 -3.97023,2.36685 -0.40236,1.45627 -0.36367,2.9785 -0.54907,4.46879 -0.14266,1.1284 -0.73824,2.10306 -1.37389,3.02044 -0.75353,0.83739 -1.21289,1.77338 -1.45547,2.86306 -0.18118,0.99955 -0.19381,2.01777 -0.20227,3.03034 0.01,1.03909 0.0111,2.07824 0.0121,3.11738 7.9e-4,1.15394 0.0171,2.3078 0.0185,3.46174 0.0122,1.19558 -0.0628,2.39177 0.099,3.57927 0.0972,0.87748 0.42561,1.68362 0.8442,2.45103 0.48826,0.90004 1.06891,1.74492 1.65117,2.58576 1.39684,1.6397 3.45298,2.89487 5.6071,3.18185 0.85644,0.15475 1.59492,-0.0383 2.35726,-0.40483 0.571,-0.35698 1.01522,-0.85876 1.51279,-1.30212 0.65702,-0.36534 1.22283,-0.39548 1.74314,-0.99848 0.70375,-1.40467 1.05871,-2.97958 1.46886,-4.49288 0,0 -3.31644,-1.80036 -3.31644,-1.80036 v 0 c -0.38037,1.44506 -0.74575,2.96524 -1.51893,4.25403 -0.47977,0.50105 -1.20549,0.50636 -1.72303,0.96606 -0.45863,0.42828 -0.89166,0.89143 -1.44435,1.20314 -0.71493,0.31887 -1.43258,0.38196 -2.20579,0.2215 -1.51845,-0.32327 -2.53256,-1.29402 2.15833,1.53504 0.12261,0.0739 -0.26161,-0.11856 -0.38298,-0.19452 -0.34344,-0.21495 -0.40246,-0.31748 -0.68073,-0.61415 -0.58569,-0.82496 -1.17958,-1.64829 -1.64802,-2.54661 -0.43955,-0.72031 -0.80611,-1.47966 -0.91665,-2.32663 -0.21099,-1.17349 -0.16409,-2.35162 -0.15854,-3.54117 7.9e-4,-1.14927 0.0173,-2.29851 0.0115,-3.44778 -0.006,-1.03754 -0.0173,-2.07512 -0.01,-3.11267 10e-4,-0.98952 -0.002,-1.98459 0.15421,-2.96456 0.21502,-1.04462 0.65757,-1.93166 1.37792,-2.73052 0.67206,-0.97035 1.27791,-2.00788 1.44953,-3.19502 0.16456,-1.46024 0.11103,-2.94831 0.48803,-4.37714 0.75787,-1.7911 1.89806,-1.82745 3.69128,-2.06045 0.34747,-0.0291 0.69385,-0.0782 1.04242,-0.0873 0.31119,-0.008 1.14898,0.26032 0.93317,0.036 -0.71584,-0.74414 -1.67921,-1.20647 -2.56675,-1.73414 -0.20268,-0.12051 0.34109,0.32651 0.49688,0.50352 0.4211,0.47847 0.64034,0.83206 1.00494,1.36106 0.80861,1.14362 1.5836,2.24774 1.59345,3.70186 -0.003,1.24254 0.01,2.48557 -0.0385,3.72749 0,0 3.51583,1.79141 3.51583,1.79141 z" />
    <path
       style="fill:#000080;stroke-width:0.264583"
       id="path508"
       d="m 168.22914,178.55795 c 0.0808,1.84344 0.0534,3.68991 0.034,5.53449 -0.0246,1.43166 -0.0196,2.86351 0.009,4.29503 -0.0238,2.30134 0.0676,4.5946 0.21513,6.89043 0.11667,1.68071 0.17546,3.36435 0.197,5.04873 0.009,1.0176 0.005,2.03526 0.002,3.05289 0.009,1.02365 0.003,2.04737 2.6e-4,3.07104 0.0125,0.14873 0.0249,0.29746 0.0374,0.44619 0,0 3.50937,1.73294 3.50937,1.73294 v 0 c -0.0235,-0.13589 -0.047,-0.27178 -0.0704,-0.40766 -0.002,-1.02268 -0.006,-2.04542 0.005,-3.06806 -0.001,-1.02621 -0.004,-2.05254 -0.0333,-3.07841 -0.0524,-1.70337 -0.13554,-3.40555 -0.26782,-5.10474 -0.16998,-2.28117 -0.29438,-4.56163 -0.1943,-6.85042 0.0291,-1.42847 0.0331,-2.85727 0.009,-4.2859 -0.0191,-1.83301 -0.0478,-3.66805 0.034,-5.49988 0,0 -3.48692,-1.77667 -3.48692,-1.77667 z" />
    <path
       style="fill:#000080;stroke-width:0.264583"
       id="path510"
       d="m 168.82384,209.09534 c 1.76615,-0.0435 3.53288,-0.0362 5.29935,-0.0254 1.00791,0.007 0.5183,0.004 1.46882,0.0106 0,0 -3.12531,-2.27067 -3.12531,-2.27067 v 0 c -0.93162,0.007 -0.45171,0.003 -1.43971,0.0106 -1.78977,0.0111 -3.57974,0.0169 -5.36921,-0.0254 0,0 3.16606,2.30028 3.16606,2.30028 z" />
    <path
       style="fill:#000080;stroke-width:0.264583"
       id="path512"
       d="m 166.74992,178.30608 c -0.6127,0.007 -1.22908,0.0383 -1.84032,-0.0142 -1.98101,0.13193 -2.13335,-0.86256 2.46607,2.34133 0.91345,0.0365 1.80425,-0.10959 2.70253,-0.25009 0.86509,-0.1357 1.73981,-0.18546 2.6143,-0.20328 0,0 -3.20421,-2.30232 -3.20421,-2.30232 v 0 c -0.86837,0.0765 -1.74223,0.10143 -2.60171,0.26153 -0.90525,0.14143 -1.8065,0.23904 -2.72452,0.15934 3.29258,2.4997 1.8848,2.28552 3.97904,2.34132 0.59575,-0.067 1.20279,-0.0101 1.80112,-0.0142 0,0 -3.1923,-2.31935 -3.1923,-2.31935 z" />
    <path
       style="fill:#000080;stroke-width:0.264583"
       id="path514"
       d="m 167.76263,160.75823 c 0.0571,1.35991 0.046,2.7215 0.0375,4.08224 -0.006,0.819 -0.0187,0.42432 0.0317,1.18424 0,0 3.48572,1.73209 3.48572,1.73209 v 0 c -0.10085,-0.73407 -0.0705,-0.34672 -0.0765,-1.1631 -0.008,-1.348 -0.0205,-2.69692 0.0375,-4.04407 0,0 -3.51583,-1.7914 -3.51583,-1.7914 z" />
    <path
       style="fill:#000080;stroke-width:0.264583"
       id="path522"
       d="m 185.21603,176.82845 c -0.73738,0.58985 -1.65702,0.91896 -2.35662,1.56279 -0.32358,0.29778 -0.71825,0.82825 -0.98812,1.17156 -1.03826,1.63251 -1.9542,3.33761 -3.0105,4.95911 -0.93286,1.45936 -1.94011,2.86868 -2.92347,4.29399 -0.72186,1.12311 -1.36549,2.31291 -1.807,3.5749 -0.33243,1.04804 -0.4237,2.14335 -0.46939,3.23506 0.0519,1.09326 0.4549,2.14087 0.90976,3.12534 0.48619,1.03206 1.04758,2.02387 1.53319,3.05663 0.63474,1.17582 1.39309,2.2787 2.25042,3.30191 1.61049,1.82392 3.78978,3.28117 6.16716,3.85877 1.13776,0.21208 2.25154,-0.35697 3.28253,-0.785 1.2802,-0.42099 2.45513,-1.05728 3.47935,-1.93015 1.06121,-0.91434 1.62192,-2.17835 2.25993,-3.38869 0.98704,-1.80009 1.50371,-3.8022 1.82976,-5.81567 0.22903,-1.83717 0.25807,-3.6894 0.2877,-5.53793 0.0159,-1.13206 0.0161,-2.26425 0.0153,-3.39639 -0.0118,-1.323 -0.0313,-2.64592 -0.0314,-3.969 0.022,-1.41633 -0.0727,-2.85492 -0.6568,-4.1595 -1.26147,-1.86791 -3.66644,-2.48106 -5.65721,-3.34752 -0.8769,-0.37313 -1.81835,-0.48872 -2.75981,-0.55364 0,0 3.14299,2.32384 3.14299,2.32384 v 0 c 0.92194,0.091 1.8318,0.25649 2.67865,0.65124 0.57815,0.24842 0.30579,0.13996 0.89265,0.35813 0.13193,0.049 0.5151,0.22161 0.39596,0.14666 -5.54276,-3.48684 -3.17775,-2.10185 -2.23635,-1.17626 0.71753,1.21141 0.77364,2.63059 0.77361,4.01138 5.3e-4,1.31463 -0.0191,2.6291 -0.0218,3.94372 0.009,1.1401 0.0277,2.28008 0.0399,3.42015 0.009,1.8369 -0.003,3.67962 -0.22446,5.50579 -0.30372,1.97773 -0.75001,3.9551 -1.81336,5.67992 -0.62016,1.16173 -1.16895,2.38862 -2.20628,3.24942 -1.00109,0.84217 -2.16275,1.41634 -3.40024,1.83448 -1.0105,0.39745 -2.07012,0.87278 -3.16334,0.55401 -1.29418,-0.42767 -3.29961,-1.65566 1.93797,1.31016 0.17337,0.0982 -0.33527,-0.21639 -0.49176,-0.33969 -0.43474,-0.34254 -0.58587,-0.53661 -0.96677,-0.94436 -0.86819,-0.98721 -1.60472,-2.06379 -2.27419,-3.19534 -0.47112,-1.03976 -1.0274,-2.02999 -1.51071,-3.06218 -0.50289,-0.90514 -0.857,-1.91832 -0.99122,-2.9464 0.029,-1.05823 0.0881,-2.12329 0.39259,-3.14457 0.42146,-1.23512 1.03769,-2.39734 1.7249,-3.50456 0.96393,-1.4425 1.983,-2.8467 2.911,-4.31302 1.02522,-1.62518 1.91803,-3.33264 3.01601,-4.91098 0.31047,-0.38738 0.57347,-0.75006 0.94622,-1.08181 0.71932,-0.64023 1.63331,-0.99784 2.4218,-1.53554 0,0 -3.32858,-2.09076 -3.32858,-2.09076 z" />
    <path
       style="fill:#000080;stroke-width:0.264583"
       id="path524"
       d="m 189.0172,177.9131 c 3.00603,-0.17377 3.56406,0.86244 -1.03988,-2.32598 -0.84758,0.0208 -1.69547,0.021 -2.54325,0.0213 -0.72424,0.0867 -1.68613,-0.23464 -2.3318,0.23142 -0.12133,0.0876 -0.20386,0.2191 -0.30579,0.32865 -0.0717,0.13255 -0.14349,0.26509 -0.21523,0.39764 0,0 3.40086,1.95158 3.40086,1.95158 v 0 c 0.0538,-0.0987 0.1076,-0.19751 0.16141,-0.29626 0.64859,-0.56709 1.65127,-0.25229 2.44242,-0.32307 0.86734,2.6e-4 1.73478,0.001 2.60193,0.0213 -1.0174,-0.77735 -2.01533,-1.58088 -3.05221,-2.33206 -0.13642,-0.0988 -2.01713,0.13626 -2.31076,0.006 0,0 3.1923,2.31935 3.1923,2.31935 z" />
  </g>
</svg>
